<svg xmlns="http://www.w3.org/2000/svg" xmlns:svg="http://www.w3.org/2000/svg" id="svg2" width="45" height="45" version="1.1" style="display:inline"><defs id="defs4"><linearGradient id="linearGradient3798"><stop style="stop-color:#aeaeae;stop-opacity:1" id="stop3800" offset="0"/><stop style="stop-color:#000;stop-opacity:1" id="stop3802" offset="1"/></linearGradient></defs><metadata id="metadata7"/><g id="layer2" style="display:inline" transform="translate(0,-725)"><path style="fill:#ff0302;fill-opacity:1;stroke:none" id="path3018" d="m 1.0888174,725.00179 c -0.60922238,0.0358 -1.09005099,0.62066 -1.09005099,1.33978 l 0,42.32753 c 0,0.74234 0.5126896,1.3398 1.14970499,1.3398 l 1.3919386,0 0,-45.00711 -1.3919386,0 c -0.019903,0 -0.040004,-10e-4 -0.059658,0 z"/><path style="fill:#120ffe;fill-opacity:1;stroke:none" id="rect3006" d="m 5.0278219,725.00125 0,45.00763 1.4877478,0 c 0.6370144,0 1.1497037,-0.59745 1.1497037,-1.3398 l 0,-42.32801 c 0,-0.74232 -0.5126893,-1.33982 -1.1497037,-1.33982 l -1.4877478,0 z"/><rect id="rect3010" width="2.487" height="45.008" x="2.54" y="725.001" rx="0" ry="0" style="fill:#01d318;fill-opacity:1;stroke:none"/></g><g id="layer4" transform="translate(0,-755)"><path style="fill:#000;fill-opacity:1;stroke:none;display:inline" id="path3792" d="m 508.10671,395.2334 a 122.22845,122.22845 0 1 1 -244.45689,0 122.22845,122.22845 0 1 1 244.45689,0 z" transform="matrix(0.05253065,0,0,0.05483809,-1.7883735,756.04911)"/><text xml:space="preserve" style="font-size:9.82973003px;font-style:normal;font-variant:normal;font-weight:700;font-stretch:normal;text-align:center;line-height:125%;letter-spacing:0;word-spacing:0;text-anchor:middle;fill:#fff;fill-opacity:1;stroke:#000;stroke-width:.05799887;display:inline;font-family:Arial;-inkscape-font-specification:Andale Mono Bold" id="text3794" x="18.438" y="781.917" transform="scale(1.0008229,0.99917779)"><tspan id="tspan3796" x="18.438" y="781.917" style="stroke-width:.05799887">?</tspan></text></g><g id="layer3" transform="translate(0,-755)"><path style="fill:#000;stroke:none;display:inline" id="path3813" d="m 21.591439,764.20901 c -0.304594,0 -0.60532,0.01 -0.904981,0.0299 5.910992,0.45243 10.586479,6.21491 10.586479,13.2594 0,7.04448 -4.675487,12.80897 -10.586479,13.26141 0.299661,0.0189 0.600387,0.0299 0.904981,0.0299 7.585654,0 13.735815,-5.9517 13.735815,-13.29151 0,-7.33976 -6.150161,-13.28947 -13.735815,-13.28947 z"/><path style="fill:#000;stroke:none" id="path3042" d="m 18.768803,755.00118 c 11.75023,0.15573 21.229063,10.16875 21.229063,22.49823 0,12.32948 -9.478833,22.34251 -21.229063,22.49822 14.521031,-0.12644 26.246281,-10.15035 26.246281,-22.49822 0,-12.34787 -11.72525,-22.37176 -26.246281,-22.49823 z"/></g></svg>