<svg xmlns="http://www.w3.org/2000/svg" xmlns:svg="http://www.w3.org/2000/svg" xmlns:xlink="http://www.w3.org/1999/xlink" id="svg3181" width="45" height="45" version="1.1"><defs id="defs3183"><radialGradient id="radialGradient11029" cx="21.064" cy="39.575" r="18.851" fx="31.995" fy="39.575" gradientTransform="matrix(1,0,0,0.20316,0,31.53451)" gradientUnits="userSpaceOnUse" xlink:href="#linearGradient11023"/><linearGradient id="linearGradient8396" x1="-2.805" x2="2.939" y1="47.691" y2="47.543" gradientUnits="userSpaceOnUse" xlink:href="#linearGradient8390"/><linearGradient id="linearGradient6640" x1="12.713" x2="17.101" y1="12.707" y2="20.22" gradientUnits="userSpaceOnUse" xlink:href="#linearGradient6634"/><linearGradient id="linearGradient6622" x1="26.08" x2="26.08" y1="14.442" y2="34.297" gradientUnits="userSpaceOnUse" xlink:href="#linearGradient6616"/><linearGradient id="linearGradient6614" x1="26.778" x2="22.102" y1="21.502" y2="24.661" gradientUnits="userSpaceOnUse" xlink:href="#linearGradient6608"/><linearGradient id="linearGradient6608"><stop id="stop6610" offset="0" style="stop-color:white;stop-opacity:1"/><stop id="stop6612" offset="1" style="stop-color:white;stop-opacity:0"/></linearGradient><linearGradient id="linearGradient6616"><stop id="stop6618" offset="0" style="stop-color:#d0d0d0;stop-opacity:1"/><stop style="stop-color:#fdfdfd;stop-opacity:1" id="stop9271" offset=".5"/><stop id="stop6620" offset="1" style="stop-color:#b9b9b9;stop-opacity:1"/></linearGradient><linearGradient id="linearGradient6634"><stop id="stop6636" offset="0" style="stop-color:white;stop-opacity:1"/><stop id="stop6638" offset="1" style="stop-color:white;stop-opacity:0"/></linearGradient><linearGradient id="linearGradient8390"><stop id="stop8392" offset="0" style="stop-color:white;stop-opacity:1"/><stop id="stop8394" offset="1" style="stop-color:white;stop-opacity:0"/></linearGradient><linearGradient id="linearGradient11023"><stop id="stop11025" offset="0" style="stop-color:black;stop-opacity:1"/><stop id="stop11027" offset="1" style="stop-color:black;stop-opacity:0"/></linearGradient><radialGradient id="radialGradient1980" cx="12" cy="19.5" r="8" fx="12" fy="19.5" gradientTransform="matrix(1,0,0,0.3125,0,13.40625)" gradientUnits="userSpaceOnUse" xlink:href="#linearGradient3831"/><linearGradient id="linearGradient1923" x1="14.125" x2="28.251" y1="6.125" y2="6.125" gradientTransform="translate(-53,0)" gradientUnits="userSpaceOnUse" xlink:href="#linearGradient3421"/><linearGradient id="linearGradient3831"><stop id="stop3833" offset="0" style="stop-color:black;stop-opacity:1"/><stop id="stop3835" offset="1" style="stop-color:black;stop-opacity:0"/></linearGradient><linearGradient id="linearGradient3091"><stop id="stop3093" offset="0" style="stop-color:#eeeeec;stop-opacity:1"/><stop style="stop-color:#e0e2dd;stop-opacity:1" id="stop3099" offset=".5"/><stop id="stop3095" offset="1" style="stop-color:#eeeeec;stop-opacity:0"/></linearGradient><linearGradient id="linearGradient3151"><stop style="stop-color:white;stop-opacity:1" id="stop3153" offset="0"/><stop id="stop3155" offset=".5" style="stop-color:#8ae234;stop-opacity:1"/><stop style="stop-color:#73d216;stop-opacity:1" id="stop3157" offset="1"/></linearGradient><linearGradient id="linearGradient3159"><stop id="stop3161" offset="0" style="stop-color:white;stop-opacity:1"/><stop id="stop3163" offset="1" style="stop-color:white;stop-opacity:0"/></linearGradient><linearGradient id="linearGradient3421"><stop id="stop3423" offset="0" style="stop-color:black;stop-opacity:1"/><stop id="stop3425" offset="1" style="stop-color:black;stop-opacity:0"/></linearGradient><radialGradient id="radialGradient3359" cx="2.163" cy="2.379" r="2.315" fx="2.163" fy="2.379" gradientTransform="matrix(0.700022,0,0,0.633863,0.819259,1.117278)" gradientUnits="userSpaceOnUse" xlink:href="#linearGradient3151"/><linearGradient id="linearGradient3361" x1="2.129" x2="3.707" y1="1.528" y2="7.747" gradientUnits="userSpaceOnUse" xlink:href="#linearGradient3159"/></defs><metadata id="metadata3186"/><g id="layer1" transform="translate(0,-1007.3622)"><g id="g3326" transform="translate(420.67351,552.186)"><g style="display:inline" id="layer1-3" transform="translate(-450.52803,462.64987)"><g id="g2868" transform="translate(79.285715,-8.5714286)"><path style="opacity:.2;fill:url(#linearGradient1923);fill-opacity:1;stroke:none" id="rect3167" d="m -38.5,5 c -0.831,0 -1.5,0.669 -1.5,1.5 0,0.831 0.669,1.5 1.5,1.5 l 2,0 C -35.669,8 -35,7.331 -35,6.5 -35,5.669 -35.669,5 -36.5,5 l -2,0 z m 6,0 c -0.831,0 -1.5,0.669 -1.5,1.5 0,0.831 0.669,1.5 1.5,1.5 l 1,0 C -30.669,8 -30,7.331 -30,6.5 -30,5.669 -30.669,5 -31.5,5 l -1,0 z m 5,0 c -0.831,0 -1.5,0.669 -1.5,1.5 0,0.831 0.669,1.5 1.5,1.5 l 13,0 C -13.669,8 -13,7.331 -13,6.5 -13,5.669 -13.669,5 -14.5,5 l -13,0 z m -11,11 c -0.831,0 -1.5,0.669 -1.5,1.5 0,0.831 0.669,1.5 1.5,1.5 0.831,0 1.5,-0.669 1.5,-1.5 0,-0.831 -0.669,-1.5 -1.5,-1.5 z m 4,0 c -0.831,0 -1.5,0.669 -1.5,1.5 0,0.831 0.669,1.5 1.5,1.5 l 5,0 c 0.831,0 1.5,-0.669 1.5,-1.5 0,-0.831 -0.669,-1.5 -1.5,-1.5 l -5,0 z m 9,0 c -0.831,0 -1.5,0.669 -1.5,1.5 0,0.831 0.669,1.5 1.5,1.5 l 5,0 c 0.831,0 1.5,-0.669 1.5,-1.5 0,-0.831 -0.669,-1.5 -1.5,-1.5 l -5,0 z m -13,11 c -0.831,0 -1.5,0.669 -1.5,1.5 0,0.831 0.669,1.5 1.5,1.5 0.831,0 1.5,-0.669 1.5,-1.5 0,-0.831 -0.669,-1.5 -1.5,-1.5 z m 4,0 c -0.831,0 -1.5,0.669 -1.5,1.5 0,0.831 0.669,1.5 1.5,1.5 0.831,0 1.5,-0.669 1.5,-1.5 0,-0.831 -0.669,-1.5 -1.5,-1.5 z m 4,0 c -0.831,0 -1.5,0.669 -1.5,1.5 0,0.831 0.669,1.5 1.5,1.5 l 4,0 c 0.831,0 1.5,-0.669 1.5,-1.5 0,-0.831 -0.669,-1.5 -1.5,-1.5 l -4,0 z m 8,0 c -0.831,0 -1.5,0.669 -1.5,1.5 0,0.831 0.669,1.5 1.5,1.5 l 5,0 c 0.831,0 1.5,-0.669 1.5,-1.5 0,-0.831 -0.669,-1.5 -1.5,-1.5 l -5,0 z m -16,11 c -0.831,0 -1.5,0.669 -1.5,1.5 0,0.831 0.669,1.5 1.5,1.5 0.831,0 1.5,-0.669 1.5,-1.5 0,-0.831 -0.669,-1.5 -1.5,-1.5 z m 4,0 c -0.831,0 -1.5,0.669 -1.5,1.5 0,0.831 0.669,1.5 1.5,1.5 l 5,0 c 0.831,0 1.5,-0.669 1.5,-1.5 0,-0.831 -0.669,-1.5 -1.5,-1.5 l -5,0 z m 9,0 c -0.831,0 -1.5,0.669 -1.5,1.5 0,0.831 0.669,1.5 1.5,1.5 l 5,0 c 0.831,0 1.5,-0.669 1.5,-1.5 0,-0.831 -0.669,-1.5 -1.5,-1.5 l -5,0 z"/><path style="opacity:.02999998;fill:url(#radialGradient1980);fill-opacity:1;stroke:none;display:inline" id="path2102" d="M 20,19.5 C 20,20.880712 16.418278,22 12,22 7.581722,22 4,20.880712 4,19.5 4,18.119288 7.581722,17 12,17 c 4.418278,0 8,1.119288 8,2.5 z" transform="matrix(1.977341,0,0,2.258045,-41.46526,-6.610336)"/><g style="display:inline" id="g3119" transform="translate(-52,-11)"><path id="path3121" d="M 5,3.21875 C 5,4.2025072 4.1045695,5 3,5 1.8954305,5 1,4.2025072 1,3.21875 1,2.2349928 1.8954305,1.4375 3,1.4375 c 1.1045695,0 2,0.7974928 2,1.78125 z" transform="matrix(1.5,0,0,1.684211,3,12.07895)" style="fill:url(#radialGradient3359);fill-opacity:1;stroke:#4e9a06;stroke-width:.62915254;stroke-linecap:round;stroke-linejoin:round;stroke-miterlimit:4;stroke-opacity:1;stroke-dasharray:none;stroke-dashoffset:0"/><path id="path3123" d="M 5,3.21875 C 5,4.2025072 4.1045695,5 3,5 1.8954305,5 1,4.2025072 1,3.21875 1,2.2349928 1.8954305,1.4375 3,1.4375 c 1.1045695,0 2,0.7974928 2,1.78125 z" transform="matrix(1,0,0,1.122807,4.5,13.88597)" style="opacity:.8;fill:none;stroke:url(#linearGradient3361);stroke-width:.94372869;stroke-linecap:round;stroke-linejoin:round;stroke-miterlimit:4;stroke-opacity:1;stroke-dasharray:none;stroke-dashoffset:0;display:inline"/></g><use id="use3143" width="48" height="48" x="0" y="0" transform="translate(0,11)" xlink:href="#g3119"/><use id="use3145" width="48" height="48" x="0" y="0" transform="translate(0,22)" xlink:href="#g3119"/><use id="use3147" width="48" height="48" x="0" y="0" transform="translate(0,33)" xlink:href="#g3119"/></g></g><g style="display:none" id="layer2"><rect id="rect4038" width="200" height="72" x="-135" y="-11" style="opacity:0;fill:#eeeeec;fill-opacity:1;stroke:none"/></g></g><g id="layer1-8" transform="matrix(0.72909644,0,0,0.72909644,8.5499102,1014.1356)"><path id="path9273" d="m 39.914894,39.574467 c 0,2.115133 -8.439909,3.829787 -18.851065,3.829787 -10.411155,0 -18.8510643,-1.714654 -18.8510643,-3.829787 0,-2.115133 8.4399093,-3.829788 18.8510643,-3.829788 10.411156,0 18.851065,1.714655 18.851065,3.829788 z" transform="matrix(1.14052,0,0,0.913886,2.476299,8.333421)" style="opacity:.15;fill:url(#radialGradient11029);fill-opacity:1;stroke:none"/><path id="path4857" d="m 12.392065,4.6875 -1.310404,1.28125 4.118412,4.25 0.249601,3.71875 -2.839209,2.8125 -1.684805,-0.1875 -3.9936117,-3.875 -2.0592062,0 c -10e-8,0 -1.341604,1.4375 -1.341604,1.4375 -0.2578843,7.630609 6.1846762,10.554277 12.6672379,9.09375 L 35.324134,44.4375 c 2.322886,1.333221 5.649414,1.677609 7.965981,0 1.73092,-1.704922 1.265114,-4.952078 0.676445,-5.84375 L 23.873699,16.4375 c 2.601717,-8.49934 -4.147,-12.7427522 -11.481634,-11.75 z" style="color:#000;fill:#8f8f8f;fill-opacity:1;fill-rule:nonzero;stroke:#888a85;stroke-width:.99999934;stroke-linecap:butt;stroke-linejoin:miter;stroke-miterlimit:4;stroke-opacity:1;stroke-dasharray:none;stroke-dashoffset:0;marker:none;visibility:visible;display:inline;overflow:visible"/><path id="path2140" d="m 16.37085,22.623945 19.343274,21.453264 c 0.784392,0.971561 3.340375,0.802885 4.249643,-0.106383 1.633772,-1.633772 1.586176,-3.234303 0.01738,-4.934533 L 21.379727,17.419035 C 23.676312,10.505145 18.496884,4.5921792 12.968995,5.3366795 l -0.81991,0.8376757 3.555496,3.9302668 0.28125,3.987115 -3.173553,3.180166 -3.9949297,-0.442315 -3.6978799,-3.671056 c 0,0 -1.0776676,1.138198 -1.0776676,1.138198 -0.4348106,6.626721 5.9580227,10.291653 12.3290492,8.327215 z" style="color:#000;fill:url(#linearGradient6622);fill-opacity:1;fill-rule:nonzero;stroke:url(#linearGradient6614);stroke-width:.99999952;stroke-linecap:butt;stroke-linejoin:miter;stroke-miterlimit:4;stroke-opacity:1;stroke-dasharray:none;stroke-dashoffset:0;marker:none;visibility:visible;display:inline;overflow:visible"/><path id="path6624" d="m 16.37085,22.623945 19.343274,21.453264 c 0.784392,0.971561 3.340375,0.802885 4.249643,-0.106383 1.633772,-1.633772 1.586176,-3.234303 0.01738,-4.934533 L 21.379727,17.419035 C 23.676312,10.505145 18.45269,4.6142763 12.924801,5.3587766 l -0.522038,0.5185267 3.769903,4.0145527 0.34508,4.348817 -3.471425,3.541868 L 8.5407526,17.340226 5.140745,13.881937 c 0,0 -0.6095825,0.627559 -0.6095825,0.627559 -0.1582149,5.626721 4.7027036,9.036334 11.8396875,8.114449 z" style="color:#000;fill:none;stroke:url(#linearGradient6640);stroke-width:.99999952;stroke-linecap:butt;stroke-linejoin:miter;stroke-miterlimit:4;stroke-opacity:1;stroke-dasharray:none;stroke-dashoffset:0;marker:none;visibility:visible;display:inline;overflow:visible"/><rect id="rect6642" width="3" height="22" x="-.535" y="30.784" rx="2" ry="2" transform="matrix(0.754759,-0.656002,0.656002,0.754759,0,0)" style="fill:#000;fill-opacity:.111588;stroke:url(#linearGradient8396);stroke-width:1.0000006;stroke-linecap:round;stroke-linejoin:round;stroke-miterlimit:4;stroke-opacity:1;stroke-dasharray:none;stroke-dashoffset:0"/></g></g></svg>